Cantarell-Regular_20180527_Sketch3.ufo
<glyph name="plus" format="1">
  <advance width="650"/>
  <unicode hex="002B"/>
  <outline>
    <contour>
      <point x="363" y="62" type="line"/>
      <point x="363" y="590" type="line"/>
      <point x="293" y="590" type="line"/>
      <point x="293" y="62" type="line"/>
    </contour>
    <contour>
      <point x="577" y="296" type="line"/>
      <point x="577" y="365" type="line"/>
      <point x="73" y="365" type="line"/>
      <point x="73" y="296" type="line"/>
    </contour>
  </outline>
</glyph>
<glyph name="J" format="1">
  <advance width="450"/>
  <unicode hex="004A"/>
  <note>
    J
  </note>
  <outline>
    <contour>
      <point x="285" y="-10"/>
      <point x="352" y="65"/>
      <point x="352" y="200" type="curve" smooth="yes"/>
      <point x="352" y="694" type="line"/>
      <point x="269" y="694" type="line"/>
      <point x="269" y="191" type="line" smooth="yes"/>
      <point x="269" y="109"/>
      <point x="232" y="63"/>
      <point x="165" y="63" type="curve" smooth="yes"/>
      <point x="135" y="63"/>
      <point x="95" y="72"/>
      <point x="67" y="86" type="curve"/>
      <point x="43" y="24" type="line"/>
      <point x="83" y="0"/>
      <point x="125" y="-10"/>
      <point x="167" y="-10" type="curve" smooth="yes"/>
    </contour>
    <contour>
      <point x="309" y="694" type="move" name="top"/>
    </contour>
    <contour>
      <point x="234" y="0" type="move" name="bottom"/>
    </contour>
  </outline>
</glyph>
<glyph name="T" format="1">
  <advance width="634"/>
  <unicode hex="0054"/>
  <note>
    T
  </note>
  <outline>
    <contour>
      <point x="358" y="0" type="line"/>
      <point x="358" y="660" type="line"/>
      <point x="275" y="660" type="line"/>
      <point x="275" y="0" type="line"/>
    </contour>
    <contour>
      <point x="590" y="622" type="line"/>
      <point x="590" y="694" type="line"/>
      <point x="44" y="694" type="line"/>
      <point x="44" y="622" type="line"/>
    </contour>
    <contour>
      <point x="317" y="347" type="move" name="center"/>
    </contour>
    <contour>
      <point x="317" y="0" type="move" name="bottom"/>
    </contour>
    <contour>
      <point x="317" y="694" type="move" name="top"/>
    </contour>
  </outline>
</glyph>
<glyph name="multiply" format="1">
  <advance width="580"/>
  <unicode hex="00D7"/>
  <outline>
    <contour>
      <point x="509" y="140" type="line"/>
      <point x="134" y="537" type="line"/>
      <point x="84" y="487" type="line"/>
      <point x="459" y="90" type="line"/>
    </contour>
    <contour>
      <point x="505" y="483" type="line"/>
      <point x="455" y="533" type="line"/>
      <point x="76" y="146" type="line"/>
      <point x="126" y="96" type="line"/>
    </contour>
  </outline>
</glyph>
<glyph name="Eogonek" format="1">
  <advance width="605"/>
  <unicode hex="0118"/>
  <outline>
    <component base="E"/>
    <component base="uni0328" xOffset="88"/>
    <contour>
      <point x="303" y="694" type="move" name="top"/>
    </contour>
  </outline>
</glyph>
<glyph name="uni0302" format="1">
  <advance width="386"/>
  <unicode hex="0302"/>
  <outline>
    <contour>
      <point x="80" y="559" type="line"/>
      <point x="190" y="657" type="line"/>
      <point x="299" y="559" type="line"/>
      <point x="343" y="601" type="line"/>
      <point x="216" y="728" type="line"/>
      <point x="173" y="728" type="line"/>
      <point x="45" y="587" type="line"/>
    </contour>
    <contour>
      <point x="193" y="658" type="move" name="top"/>
    </contour>
    <contour>
      <point x="355" y="602" type="move" name="top_viet"/>
    </contour>
    <contour>
      <point x="193" y="482" type="move" name="_top"/>
    </contour>
  </outline>
</glyph>
<glyph name="dotbelowcomb" format="1">
  <advance width="272"/>
  <unicode hex="0323"/>
  <outline>
    <contour>
      <point x="172" y="-195"/>
      <point x="193" y="-174"/>
      <point x="193" y="-138" type="curve" smooth="yes"/>
      <point x="193" y="-102"/>
      <point x="172" y="-81"/>
      <point x="136" y="-81" type="curve" smooth="yes"/>
      <point x="100" y="-81"/>
      <point x="79" y="-102"/>
      <point x="79" y="-138" type="curve" smooth="yes"/>
      <point x="79" y="-174"/>
      <point x="100" y="-195"/>
      <point x="136" y="-195" type="curve" smooth="yes"/>
    </contour>
    <contour>
      <point x="136" y="0" type="move" name="_bottom"/>
    </contour>
    <contour>
      <point x="136" y="-205" type="move" name="bottom"/>
    </contour>
  </outline>
</glyph>
<glyph name="beta" format="1">
  <advance width="587"/>
  <unicode hex="03B2"/>
  <outline>
    <contour>
      <point x="254" y="60"/>
      <point x="170" y="105"/>
      <point x="152" y="176" type="curve"/>
      <point x="119" y="121" type="line"/>
      <point x="143" y="38"/>
      <point x="237" y="-10"/>
      <point x="321" y="-10" type="curve" smooth="yes"/>
      <point x="466" y="-10"/>
      <point x="547" y="76"/>
      <point x="547" y="201" type="curve" smooth="yes"/>
      <point x="547" y="315"/>
      <point x="456" y="395"/>
      <point x="335" y="397" type="curve"/>
      <point x="334" y="386" type="line"/>
      <point x="431" y="389"/>
      <point x="509" y="473"/>
      <point x="509" y="567" type="curve" smooth="yes"/>
      <point x="509" y="685"/>
      <point x="413" y="749"/>
      <point x="301" y="749" type="curve" smooth="yes"/>
      <point x="162" y="749"/>
      <point x="85" y="653"/>
      <point x="85" y="527" type="curve" smooth="yes"/>
      <point x="85" y="-217" type="line"/>
      <point x="165" y="-217" type="line"/>
      <point x="165" y="533" type="line" smooth="yes"/>
      <point x="165" y="618"/>
      <point x="209" y="679"/>
      <point x="297" y="679" type="curve" smooth="yes"/>
      <point x="370" y="679"/>
      <point x="424" y="638"/>
      <point x="424" y="556" type="curve" smooth="yes"/>
      <point x="424" y="475"/>
      <point x="356" y="423"/>
      <point x="245" y="423" type="curve" smooth="yes"/>
      <point x="225" y="423" type="line"/>
      <point x="225" y="351" type="line"/>
      <point x="243" y="351" type="line" smooth="yes"/>
      <point x="376" y="351"/>
      <point x="462" y="291"/>
      <point x="462" y="194" type="curve" smooth="yes"/>
      <point x="462" y="123"/>
      <point x="420" y="60"/>
      <point x="316" y="60" type="curve" smooth="yes"/>
    </contour>
  </outline>
</glyph>
<glyph name="gamma" format="1">
  <advance width="507"/>
  <unicode hex="03B3"/>
  <outline>
    <contour>
      <point x="339" y="96" type="line" smooth="yes"/>
      <point x="398" y="216"/>
      <point x="446" y="324"/>
      <point x="483" y="482" type="curve"/>
      <point x="401" y="482" type="line"/>
      <point x="372" y="345"/>
      <point x="328" y="230"/>
      <point x="275" y="113" type="curve" smooth="yes"/>
      <point x="231" y="16" type="line"/>
      <point x="272" y="16" type="line"/>
      <point x="115" y="482" type="line"/>
      <point x="26" y="482" type="line"/>
      <point x="194" y="38" type="line" smooth="yes"/>
      <point x="212" y="-10"/>
      <point x="214" y="-67"/>
      <point x="214" y="-102" type="curve" smooth="yes"/>
      <point x="214" y="-135"/>
      <point x="213" y="-163"/>
      <point x="208" y="-217" type="curve"/>
      <point x="295" y="-217" type="line"/>
      <point x="295" y="-146" type="line" smooth="yes"/>
      <point x="295" y="-93"/>
      <point x="292" y="-52"/>
      <point x="288" y="-10" type="curve"/>
    </contour>
  </outline>
</glyph>
<glyph name="rho" format="1">
  <advance width="570"/>
  <unicode hex="03C1"/>
  <outline>
    <contour>
      <point x="80" y="-217" type="line"/>
      <point x="160" y="-217" type="line"/>
      <point x="160" y="237" type="line" smooth="yes"/>
      <point x="160" y="370"/>
      <point x="221" y="422"/>
      <point x="299" y="422" type="curve" smooth="yes"/>
      <point x="380" y="422"/>
      <point x="436" y="371"/>
      <point x="436" y="240" type="curve" smooth="yes"/>
      <point x="436" y="132"/>
      <point x="383" y="60"/>
      <point x="296" y="60" type="curve" smooth="yes"/>
      <point x="224" y="60"/>
      <point x="164" y="107"/>
      <point x="147" y="178" type="curve"/>
      <point x="114" y="123" type="line"/>
      <point x="136" y="39"/>
      <point x="205" y="-10"/>
      <point x="292" y="-10" type="curve" smooth="yes"/>
      <point x="426" y="-10"/>
      <point x="516" y="94"/>
      <point x="516" y="250" type="curve" smooth="yes"/>
      <point x="516" y="407"/>
      <point x="433" y="492"/>
      <point x="300" y="492" type="curve" smooth="yes"/>
      <point x="177" y="492"/>
      <point x="80" y="409"/>
      <point x="80" y="233" type="curve" smooth="yes"/>
    </contour>
  </outline>
</glyph>
<glyph name="psi" format="1">
  <advance width="703"/>
  <unicode hex="03C8"/>
  <outline>
    <contour>
      <point x="382" y="-217" type="line"/>
      <point x="382" y="589" type="line"/>
      <point x="302" y="589" type="line"/>
      <point x="302" y="-217" type="line"/>
    </contour>
    <contour>
      <point x="382" y="-2" type="line"/>
      <point x="525" y="-2"/>
      <point x="623" y="80"/>
      <point x="623" y="223" type="curve" smooth="yes"/>
      <point x="623" y="295"/>
      <point x="619" y="352"/>
      <point x="598" y="482" type="curve"/>
      <point x="516" y="482" type="line"/>
      <point x="538" y="355"/>
      <point x="543" y="284"/>
      <point x="543" y="228" type="curve" smooth="yes"/>
      <point x="543" y="120"/>
      <point x="475" y="68"/>
      <point x="382" y="68" type="curve"/>
      <point x="302" y="68" type="line" smooth="yes"/>
      <point x="215" y="68"/>
      <point x="156" y="108"/>
      <point x="156" y="204" type="curve" smooth="yes"/>
      <point x="156" y="482" type="line"/>
      <point x="76" y="482" type="line"/>
      <point x="76" y="185" type="line" smooth="yes"/>
      <point x="76" y="64"/>
      <point x="164" y="-2"/>
      <point x="302" y="-2" type="curve"/>
    </contour>
  </outline>
</glyph>
<glyph name="uni0435" format="1">
  <advance width="530"/>
  <unicode hex="0435"/>
  <outline>
    <component base="e"/>
    <contour>
      <point x="265" y="482" type="move" name="top"/>
    </contour>
  </outline>
</glyph>
<glyph name="uni0437" format="1">
  <advance width="80"/>
  <unicode hex="0437"/>
  <outline>
    <contour>
      <point x="342" y="-7"/>
      <point x="428" y="52"/>
      <point x="428" y="142" type="curve" smooth="yes"/>
      <point x="428" y="213"/>
      <point x="368" y="258"/>
      <point x="271" y="263" type="curve"/>
      <point x="286" y="254" type="line"/>
      <point x="362" y="256"/>
      <point x="414" y="298"/>
      <point x="414" y="365" type="curve" smooth="yes"/>
      <point x="414" y="443"/>
      <point x="341" y="492"/>
      <point x="226" y="492" type="curve" smooth="yes"/>
      <point x="165" y="492"/>
      <point x="102" y="479"/>
      <point x="49" y="451" type="curve"/>
      <point x="67" y="388" type="line"/>
      <point x="119" y="409"/>
      <point x="168" y="420"/>
      <point x="210" y="420" type="curve" smooth="yes"/>
      <point x="283" y="420"/>
      <point x="331" y="392"/>
      <point x="331" y="351" type="curve" smooth="yes"/>
      <point x="331" y="309"/>
      <point x="280" y="281"/>
      <point x="209" y="281" type="curve" smooth="yes"/>
      <point x="136" y="281" type="line"/>
      <point x="136" y="214" type="line"/>
      <point x="194" y="214" type="line" smooth="yes"/>
      <point x="289" y="214"/>
      <point x="343" y="187"/>
      <point x="343" y="139" type="curve" smooth="yes"/>
      <point x="343" y="93"/>
      <point x="297" y="66"/>
      <point x="219" y="66" type="curve" smooth="yes"/>
      <point x="169" y="66"/>
      <point x="104" y="78"/>
      <point x="59" y="96" type="curve"/>
      <point x="39" y="30" type="line"/>
      <point x="93" y="5"/>
      <point x="152" y="-7"/>
      <point x="214" y="-7" type="curve" smooth="yes"/>
    </contour>
    <contour>
      <point x="241" y="482" type="move" name="top"/>
    </contour>
    <contour>
      <point x="241" y="0" type="move" name="bottom"/>
    </contour>
  </outline>
</glyph>
<glyph name="uni043B" format="1">
  <advance width="80"/>
  <unicode hex="043B"/>
  <outline>
    <contour>
      <point x="37" y="-11" type="line"/>
      <point x="149" y="10"/>
      <point x="214" y="105"/>
      <point x="214" y="242" type="curve" smooth="yes"/>
      <point x="214" y="415" type="line"/>
      <point x="399" y="415" type="line"/>
      <point x="399" y="0" type="line"/>
      <point x="479" y="0" type="line"/>
      <point x="479" y="482" type="line"/>
      <point x="139" y="482" type="line"/>
      <point x="139" y="241" type="line" smooth="yes"/>
      <point x="139" y="144"/>
      <point x="97" y="77"/>
      <point x="26" y="62" type="curve"/>
    </contour>
  </outline>
</glyph>
<glyph name="uni0448" format="1">
  <advance width="80"/>
  <unicode hex="0448"/>
  <outline>
    <contour>
      <point x="756" y="0" type="line"/>
      <point x="756" y="482" type="line"/>
      <point x="676" y="482" type="line"/>
      <point x="676" y="66" type="line"/>
      <point x="165" y="66" type="line"/>
      <point x="165" y="482" type="line"/>
      <point x="85" y="482" type="line"/>
      <point x="85" y="0" type="line"/>
    </contour>
    <contour>
      <point x="460" y="30" type="line"/>
      <point x="460" y="482" type="line"/>
      <point x="381" y="482" type="line"/>
      <point x="381" y="30" type="line"/>
    </contour>
  </outline>
</glyph>
<glyph name="uni045A" format="1">
  <advance width="842"/>
  <unicode hex="045A"/>
  <outline>
    <contour>
      <point x="493" y="0" type="line"/>
      <point x="493" y="486" type="line"/>
      <point x="413" y="486" type="line"/>
      <point x="413" y="0" type="line"/>
    </contour>
    <contour>
      <point x="165" y="0" type="line"/>
      <point x="165" y="486" type="line"/>
      <point x="85" y="486" type="line"/>
      <point x="85" y="0" type="line"/>
    </contour>
    <contour>
      <point x="440" y="218" type="line"/>
      <point x="440" y="285" type="line"/>
      <point x="138" y="285" type="line"/>
      <point x="138" y="218" type="line"/>
    </contour>
    <contour>
      <point x="598" y="0" type="line" smooth="yes"/>
      <point x="724" y="0"/>
      <point x="801" y="62"/>
      <point x="801" y="164" type="curve" smooth="yes"/>
      <point x="801" y="259"/>
      <point x="731" y="320"/>
      <point x="628" y="320" type="curve" smooth="yes"/>
      <point x="453" y="320" type="line"/>
      <point x="453" y="255" type="line"/>
      <point x="615" y="255" type="line" smooth="yes"/>
      <point x="677" y="255"/>
      <point x="721" y="214"/>
      <point x="721" y="156" type="curve" smooth="yes"/>
      <point x="721" y="100"/>
      <point x="679" y="67"/>
      <point x="609" y="67" type="curve" smooth="yes"/>
      <point x="453" y="67" type="line"/>
      <point x="453" y="0" type="line"/>
    </contour>
  </outline>
</glyph>
<glyph name="uni0474" format="1">
  <advance width="738"/>
  <unicode hex="0474"/>
  <outline>
    <contour>
      <point x="378" y="0" type="line"/>
      <point x="537" y="464" type="line" smooth="yes"/>
      <point x="575" y="574"/>
      <point x="624" y="623"/>
      <point x="694" y="623" type="curve"/>
      <point x="685" y="701" type="line"/>
      <point x="583" y="701"/>
      <point x="509" y="634"/>
      <point x="468" y="506" type="curve" smooth="yes"/>
      <point x="316" y="29" type="line"/>
      <point x="366" y="29" type="line"/>
      <point x="139" y="694" type="line"/>
      <point x="44" y="694" type="line"/>
      <point x="297" y="0" type="line"/>
    </contour>
  </outline>
</glyph>
<glyph name="uni0493" format="1">
  <advance width="468"/>
  <unicode hex="0493"/>
  <outline>
    <contour>
      <point x="191" y="0" type="line"/>
      <point x="191" y="414" type="line"/>
      <point x="449" y="414" type="line"/>
      <point x="449" y="482" type="line"/>
      <point x="112" y="482" type="line"/>
      <point x="112" y="0" type="line"/>
    </contour>
    <contour>
      <point x="366" y="219" type="line"/>
      <point x="366" y="286" type="line"/>
      <point x="26" y="286" type="line"/>
      <point x="26" y="219" type="line"/>
    </contour>
  </outline>
</glyph>
<glyph name="uni04A1" format="1">
  <advance width="622"/>
  <unicode hex="04A1"/>
  <outline>
    <contour>
      <point x="602" y="0" type="line"/>
      <point x="431" y="267" type="line"/>
      <point x="434" y="249" type="line"/>
      <point x="593" y="482" type="line"/>
      <point x="504" y="482" type="line"/>
      <point x="348" y="251" type="line"/>
      <point x="508" y="0" type="line"/>
    </contour>
    <contour>
      <point x="272" y="0" type="line"/>
      <point x="272" y="482" type="line"/>
      <point x="191" y="482" type="line"/>
      <point x="191" y="0" type="line"/>
    </contour>
    <contour>
      <point x="388" y="219" type="line"/>
      <point x="388" y="284" type="line"/>
      <point x="226" y="284" type="line"/>
      <point x="226" y="219" type="line"/>
    </contour>
    <contour>
      <point x="220" y="415" type="line"/>
      <point x="220" y="482" type="line"/>
      <point x="18" y="482" type="line"/>
      <point x="18" y="415" type="line"/>
    </contour>
  </outline>
</glyph>
<glyph name="blank" format="1">
  <advance width="820"/>
  <unicode hex="2423"/>
  <note>
    uni2423
  </note>
  <outline>
    <contour>
      <point x="693" y="0" type="line"/>
      <point x="693" y="166" type="line"/>
      <point x="620" y="166" type="line"/>
      <point x="620" y="73" type="line"/>
      <point x="200" y="73" type="line"/>
      <point x="200" y="166" type="line"/>
      <point x="127" y="166" type="line"/>
      <point x="127" y="0" type="line"/>
    </contour>
  </outline>
</glyph>
<glyph name="_bar-cy" format="1">
  <advance width="889"/>
  <outline>
    <contour>
      <point x="761" y="312" type="line"/>
      <point x="761" y="372" type="line"/>
      <point x="128" y="372" type="line"/>
      <point x="128" y="312" type="line"/>
    </contour>
    <contour>
      <point x="445" y="342" type="move" name="_center"/>
    </contour>
  </outline>
</glyph>
<glyph name="descenderreverse-cy.case" format="1">
  <advance width="321"/>
  <outline>
    <contour>
      <point x="85" y="-178" type="line"/>
      <point x="85" y="0" type="line"/>
      <point x="142" y="0" type="line"/>
      <point x="142" y="72" type="line"/>
      <point x="10" y="72" type="line"/>
      <point x="10" y="-178" type="line"/>
    </contour>
    <contour>
      <point x="179" y="0" type="move" name="_bottomright"/>
    </contour>
  </outline>
</glyph>
<glyph name="four.osf" format="1">
  <advance width="595"/>
  <outline>
    <contour>
      <point x="442" y="-110" type="line"/>
      <point x="442" y="594" type="line"/>
      <point x="368" y="594" type="line"/>
      <point x="27" y="106" type="line"/>
      <point x="27" y="64" type="line"/>
      <point x="567" y="64" type="line"/>
      <point x="567" y="132" type="line"/>
      <point x="111" y="132" type="line"/>
      <point x="106" y="114" type="line"/>
      <point x="366" y="486" type="line"/>
      <point x="366" y="471" type="line"/>
      <point x="366" y="-110" type="line"/>
    </contour>
  </outline>
</glyph>
<glyph name="slashlongcomb.case" format="1">
  <advance width="550"/>
  <outline>
    <contour>
      <point x="543" y="709" type="line"/>
      <point x="489" y="744" type="line"/>
      <point x="-1" y="-4" type="line"/>
      <point x="50" y="-39" type="line"/>
    </contour>
    <contour>
      <point x="270" y="349" type="move" name="_center"/>
    </contour>
  </outline>
</glyph>
<glyph name="strokeshortcomb.case" format="1">
  <advance width="468"/>
  <outline>
    <contour>
      <point x="378" y="266" type="line"/>
      <point x="378" y="331" type="line"/>
      <point x="78" y="331" type="line"/>
      <point x="78" y="266" type="line"/>
    </contour>
    <contour>
      <point x="228" y="298" type="move" name="_center"/>
    </contour>
  </outline>
</glyph>
<glyph name="three.dnom" format="1">
  <advance width="74"/>
  <note>
    three
  </note>
  <outline>
    <contour>
      <point x="320" y="-7"/>
      <point x="401" y="46"/>
      <point x="401" y="126" type="curve" smooth="yes"/>
      <point x="401" y="193"/>
      <point x="343" y="243"/>
      <point x="253" y="251" type="curve"/>
      <point x="247" y="243" type="line"/>
      <point x="322" y="245"/>
      <point x="373" y="292"/>
      <point x="373" y="356" type="curve" smooth="yes"/>
      <point x="373" y="430"/>
      <point x="307" y="479"/>
      <point x="208" y="479" type="curve" smooth="yes"/>
      <point x="153" y="479"/>
      <point x="96" y="464"/>
      <point x="49" y="439" type="curve"/>
      <point x="66" y="383" type="line"/>
      <point x="111" y="403"/>
      <point x="155" y="414"/>
      <point x="193" y="414" type="curve" smooth="yes"/>
      <point x="254" y="414"/>
      <point x="295" y="387"/>
      <point x="295" y="345" type="curve" smooth="yes"/>
      <point x="295" y="296"/>
      <point x="240" y="268"/>
      <point x="140" y="268" type="curve"/>
      <point x="140" y="210" type="line"/>
      <point x="256" y="210"/>
      <point x="324" y="178"/>
      <point x="324" y="125" type="curve" smooth="yes"/>
      <point x="324" y="83"/>
      <point x="280" y="58"/>
      <point x="206" y="58" type="curve" smooth="yes"/>
      <point x="160" y="58"/>
      <point x="104" y="68"/>
      <point x="57" y="88" type="curve"/>
      <point x="40" y="29" type="line"/>
      <point x="93" y="4"/>
      <point x="148" y="-7"/>
      <point x="201" y="-7" type="curve" smooth="yes"/>
    </contour>
  </outline>
</glyph>
